<?xml version="1.0" encoding="UTF-8"?>
<!DOCTYPE svg PUBLIC "-//W3C//DTD SVG 1.1//EN"
    "http://www.w3.org/Graphics/SVG/1.1/DTD/svg11.dtd"><svg stroke="rgb(0,0,0)" xmlns="http://www.w3.org/2000/svg" font-size="1" width="800.0000" stroke-opacity="1" xmlns:xlink="http://www.w3.org/1999/xlink" viewBox="0.0 0.0 800.0 199.99999999999997" height="200.0000" version="1.1"><defs></defs><g fill="rgb(0,0,255)" stroke="rgb(0,0,0)" stroke-linecap="butt" stroke-width="1.5999999999999999" stroke-miterlimit="10.0" fill-opacity="1.0" stroke-opacity="1.0" stroke-linejoin="miter"><path d="M 800.0000,100.0000 c 0.0000,-55.2285 -44.7715,-100.0000 -100.0000 -100.0000c -55.2285,-0.0000 -100.0000,44.7715 -100.0000 100.0000c -0.0000,55.2285 44.7715,100.0000 100.0000 100.0000c 55.2285,0.0000 100.0000,-44.7715 100.0000 -100.0000Z"/></g><g fill="rgb(0,0,255)" stroke="rgb(0,0,0)" stroke-linecap="butt" stroke-width="1.5999999999999999" stroke-miterlimit="10.0" fill-opacity="1.0" stroke-opacity="1.0" stroke-linejoin="miter"><path d="M 600.0000,100.0000 c 0.0000,-55.2285 -44.7715,-100.0000 -100.0000 -100.0000c -55.2285,-0.0000 -100.0000,44.7715 -100.0000 100.0000c -0.0000,55.2285 44.7715,100.0000 100.0000 100.0000c 55.2285,0.0000 100.0000,-44.7715 100.0000 -100.0000Z"/></g><g fill="rgb(0,0,255)" stroke="rgb(0,0,0)" stroke-linecap="butt" stroke-width="1.5999999999999999" stroke-miterlimit="10.0" fill-opacity="1.0" stroke-opacity="1.0" stroke-linejoin="miter"><path d="M 400.0000,100.0000 c 0.0000,-55.2285 -44.7715,-100.0000 -100.0000 -100.0000c -55.2285,-0.0000 -100.0000,44.7715 -100.0000 100.0000c -0.0000,55.2285 44.7715,100.0000 100.0000 100.0000c 55.2285,0.0000 100.0000,-44.7715 100.0000 -100.0000Z"/></g><g fill="rgb(0,0,255)" stroke="rgb(0,0,0)" stroke-linecap="butt" stroke-width="1.5999999999999999" stroke-miterlimit="10.0" fill-opacity="1.0" stroke-opacity="1.0" stroke-linejoin="miter"><path d="M 200.0000,100.0000 c 0.0000,-55.2285 -44.7715,-100.0000 -100.0000 -100.0000c -55.2285,-0.0000 -100.0000,44.7715 -100.0000 100.0000c -0.0000,55.2285 44.7715,100.0000 100.0000 100.0000c 55.2285,0.0000 100.0000,-44.7715 100.0000 -100.0000Z"/></g></svg>